<?xml version="1.0" encoding="utf-8"?>
<!-- Generator: Adobe Illustrator 18.1.1, SVG Export Plug-In . SVG Version: 6.00 Build 0)  -->
<svg version="1.1" id="Layer_1" xmlns="http://www.w3.org/2000/svg" xmlns:xlink="http://www.w3.org/1999/xlink" x="0px" y="0px"
	 viewBox="0 0 349.4 426.7" enable-background="new 0 0 349.4 426.7" xml:space="preserve">
<g>
	<defs>
		<rect id="SVGID_1_" x="-474.7" y="-284.3" width="1648.1" height="1002.2"/>
	</defs>
	<clipPath id="SVGID_2_">
		<use xlink:href="#SVGID_1_"  overflow="visible"/>
	</clipPath>
	<g clip-path="url(#SVGID_2_)">
		<defs>
			<path id="SVGID_3_" d="M325.5,189.6V360H112.6V189.6c0-58.8,47.7-106.5,106.5-106.5C277.9,83.2,325.5,130.8,325.5,189.6z"/>
		</defs>
		<clipPath id="SVGID_4_">
			<use xlink:href="#SVGID_3_"  overflow="visible"/>
		</clipPath>
		<rect x="105.5" y="76.1" clip-path="url(#SVGID_4_)" fill="#99DAEE" width="227.1" height="291"/>
	</g>
</g>
<g>
	<defs>
		<rect id="SVGID_5_" x="-474.7" y="-284.3" width="1648.1" height="1002.2"/>
	</defs>
	<clipPath id="SVGID_6_">
		<use xlink:href="#SVGID_5_"  overflow="visible"/>
	</clipPath>
	<g clip-path="url(#SVGID_6_)">
		<defs>
			<ellipse id="SVGID_7_" cx="219.2" cy="242.4" rx="69" ry="69.2"/>
		</defs>
		<clipPath id="SVGID_8_">
			<use xlink:href="#SVGID_7_"  overflow="visible"/>
		</clipPath>
		<rect x="143.1" y="166.1" clip-path="url(#SVGID_8_)" fill="#FFFFFF" width="152.3" height="152.7"/>
	</g>
</g>
<g>
	<defs>
		<rect id="SVGID_9_" x="-474.7" y="-284.3" width="1648.1" height="1002.2"/>
	</defs>
	<clipPath id="SVGID_10_">
		<use xlink:href="#SVGID_9_"  overflow="visible"/>
	</clipPath>
	<g clip-path="url(#SVGID_10_)">
		<defs>
			<path id="SVGID_11_" d="M206.1,258.9c18.7,0,35.3,4.3,49.6,12.9c2.1,1.2,3.4,2.5,3.4,5.7c0,3.1-2.5,5.4-5.3,5.4
				c-1.4,0-2.3-0.5-3.6-1.3c-12.4-7.5-27.8-11.5-44.1-11.5c-9.1,0-18.3,1.2-26.9,3c-1.4,0.3-3.2,0.8-4.2,0.8c-3.2,0-5.4-2.6-5.4-5.4
				c0-3.6,2.1-5.4,4.6-5.9C184.7,260.2,195.2,258.9,206.1,258.9z M205,230.9c22.3,0,43.9,5.6,60.9,15.8c2.8,1.6,3.9,3.7,3.9,6.8
				c0,3.7-2.9,6.7-6.7,6.7c-1.9,0-3-0.8-4.3-1.5c-13.9-8.3-33.1-13.8-54.2-13.8c-10.8,0-20.1,1.5-27.8,3.6c-1.7,0.5-2.6,1-4.2,1
				c-3.7,0-6.7-3-6.7-6.7c0-3.6,1.8-6.1,5.3-7.1C180.9,233,190.7,230.9,205,230.9z M206.7,201.5c25.1,0,51.4,5.2,70.7,16.5
				c2.6,1.5,4.4,3.7,4.4,7.8c0,4.7-3.7,8-8,8c-1.7,0-2.8-0.4-4.4-1.3c-15.4-9.3-39.4-14.4-62.6-14.4c-11.6,0-23.3,1.2-34.1,4.1
				c-1.2,0.3-2.8,0.9-4.4,0.9c-4.6,0-8-3.6-8-8.2c0-4.7,2.9-7.3,6-8.2C178.4,203.2,191.9,201.5,206.7,201.5z M219.2,156.8
				c-47.1,0-85.3,38.3-85.3,85.6c0,47.3,38.2,85.6,85.3,85.6s85.3-38.3,85.3-85.6C304.5,195.2,266.3,156.8,219.2,156.8z"/>
		</defs>
		<clipPath id="SVGID_12_">
			<use xlink:href="#SVGID_11_"  overflow="visible"/>
		</clipPath>
		<rect x="126.8" y="149.7" clip-path="url(#SVGID_12_)" fill="#90BB3E" width="184.8" height="185.4"/>
	</g>
</g>
<g>
	<defs>
		<rect id="SVGID_13_" x="-474.7" y="-284.3" width="1648.1" height="1002.2"/>
	</defs>
	<clipPath id="SVGID_14_">
		<use xlink:href="#SVGID_13_"  overflow="visible"/>
	</clipPath>
	
		<line clip-path="url(#SVGID_14_)" fill="none" stroke="#9B9B9B" stroke-width="3" stroke-miterlimit="10" x1="218.3" y1="83" x2="218.3" y2="54.6"/>
</g>
<g>
	<defs>
		<rect id="SVGID_15_" x="-474.7" y="-284.3" width="1648.1" height="1002.2"/>
	</defs>
	<clipPath id="SVGID_16_">
		<use xlink:href="#SVGID_15_"  overflow="visible"/>
	</clipPath>
	<g clip-path="url(#SVGID_16_)">
		<defs>
			<circle id="SVGID_17_" cx="218.4" cy="51.7" r="9.9"/>
		</defs>
		<clipPath id="SVGID_18_">
			<use xlink:href="#SVGID_17_"  overflow="visible"/>
		</clipPath>
		<rect x="201.3" y="34.7" clip-path="url(#SVGID_18_)" fill="#E94F3E" width="34.1" height="34.1"/>
	</g>
</g>
<g>
	<defs>
		<rect id="SVGID_19_" x="-474.7" y="-284.3" width="1648.1" height="1002.2"/>
	</defs>
	<clipPath id="SVGID_20_">
		<use xlink:href="#SVGID_19_"  overflow="visible"/>
	</clipPath>
	<g opacity="0.2982" clip-path="url(#SVGID_20_)" enable-background="new    ">
		<g>
			<defs>
				<rect id="SVGID_21_" x="208.1" y="40.8" width="11.4" height="8.5"/>
			</defs>
			<clipPath id="SVGID_22_">
				<use xlink:href="#SVGID_21_"  overflow="visible"/>
			</clipPath>
			<g clip-path="url(#SVGID_22_)">
				<defs>
					<path id="SVGID_23_" d="M219.1,41.8c-0.2,0-0.5,0-0.7,0c-4.3,0-8,2.8-9.4,6.7c0.9,0.4,1.9,0.7,3,0.7c3.9,0,7.1-3.2,7.1-7.1
						C219.1,41.9,219.1,41.9,219.1,41.8z"/>
				</defs>
				<clipPath id="SVGID_24_">
					<use xlink:href="#SVGID_23_"  overflow="visible"/>
				</clipPath>
				<g clip-path="url(#SVGID_24_)">
					<defs>
						<rect id="SVGID_25_" x="208.1" y="40.8" width="11.4" height="8.5"/>
					</defs>
					<clipPath id="SVGID_26_">
						<use xlink:href="#SVGID_25_"  overflow="visible"/>
					</clipPath>
					<rect x="201.9" y="34.7" opacity="0.386" clip-path="url(#SVGID_26_)" fill="#FFFFFF" width="24.3" height="21.5"/>
				</g>
			</g>
		</g>
	</g>
</g>
<g>
	<defs>
		<rect id="SVGID_27_" x="-474.7" y="-284.3" width="1648.1" height="1002.2"/>
	</defs>
	<clipPath id="SVGID_28_">
		<use xlink:href="#SVGID_27_"  overflow="visible"/>
	</clipPath>
	<g opacity="9.420000e-02" clip-path="url(#SVGID_28_)" enable-background="new    ">
		<g>
			<defs>
				<rect id="SVGID_29_" x="111.6" y="81.9" width="214.4" height="278.2"/>
			</defs>
			<clipPath id="SVGID_30_">
				<use xlink:href="#SVGID_29_"  overflow="visible"/>
			</clipPath>
			<g clip-path="url(#SVGID_30_)">
				<defs>
					<path id="SVGID_31_" d="M325.5,189.6V360H112.6V189.6c0-58.8,47.7-106.5,106.5-106.5C277.9,83.2,325.5,130.8,325.5,189.6z"/>
				</defs>
				<clipPath id="SVGID_32_">
					<use xlink:href="#SVGID_31_"  overflow="visible"/>
				</clipPath>
				<g clip-path="url(#SVGID_32_)">
					<defs>
						<rect id="SVGID_33_" x="111.6" y="81.9" width="214.4" height="278.2"/>
					</defs>
					<clipPath id="SVGID_34_">
						<use xlink:href="#SVGID_33_"  overflow="visible"/>
					</clipPath>
					<rect x="105.5" y="76.1" clip-path="url(#SVGID_34_)" fill="#99DAEE" width="227.1" height="291"/>
				</g>
			</g>
		</g>
	</g>
</g>
<g>
	<defs>
		<rect id="SVGID_35_" x="-474.7" y="-284.3" width="1648.1" height="1002.2"/>
	</defs>
	<clipPath id="SVGID_36_">
		<use xlink:href="#SVGID_35_"  overflow="visible"/>
	</clipPath>
	<g opacity="0.2225" clip-path="url(#SVGID_36_)" enable-background="new    ">
		<g>
			<defs>
				<rect id="SVGID_37_" x="131.5" y="81.9" width="88" height="320.8"/>
			</defs>
			<clipPath id="SVGID_38_">
				<use xlink:href="#SVGID_37_"  overflow="visible"/>
			</clipPath>
			<g clip-path="url(#SVGID_38_)">
				<defs>
					<path id="SVGID_39_" d="M218.9,83c0,0-50.5,20.1-65.4,40.5c-7.2,9.9-12.9,18.1-16.9,30.1c-4,12-4.1,24-4.1,24v225h30.4V177
						l2.3-23.5c0,0,3.3-18.1,8.5-26.6C184.7,108.6,218.9,83,218.9,83z"/>
				</defs>
				<clipPath id="SVGID_40_">
					<use xlink:href="#SVGID_39_"  overflow="visible"/>
				</clipPath>
				<g clip-path="url(#SVGID_40_)">
					<defs>
						<rect id="SVGID_41_" x="131.5" y="81.9" width="88" height="320.8"/>
					</defs>
					<clipPath id="SVGID_42_">
						<use xlink:href="#SVGID_41_"  overflow="visible"/>
					</clipPath>
					<rect x="125.4" y="75.9" clip-path="url(#SVGID_42_)" fill="#FFFFFF" width="100.6" height="333.8"/>
				</g>
			</g>
		</g>
	</g>
</g>
<g>
	<defs>
		<rect id="SVGID_43_" x="-474.7" y="-284.3" width="1648.1" height="1002.2"/>
	</defs>
	<clipPath id="SVGID_44_">
		<use xlink:href="#SVGID_43_"  overflow="visible"/>
	</clipPath>
	<g clip-path="url(#SVGID_44_)">
		<defs>
			<path id="SVGID_45_" d="M89.9,360c0-6.3,5.1-11.4,11.4-11.4h232.8c6.3,0,11.4,5.1,11.4,11.4v55.4c0,2.3-1.9,4.3-4.2,4.3h-247
				c-2.3,0-4.2-1.9-4.2-4.3V360z"/>
		</defs>
		<clipPath id="SVGID_46_">
			<use xlink:href="#SVGID_45_"  overflow="visible"/>
		</clipPath>
		<rect x="82.8" y="341.5" clip-path="url(#SVGID_46_)" fill="#F1C42E" width="269.7" height="85.2"/>
	</g>
</g>
<g>
	<defs>
		<rect id="SVGID_47_" x="-474.7" y="-284.3" width="1648.1" height="1002.2"/>
	</defs>
	<clipPath id="SVGID_48_">
		<use xlink:href="#SVGID_47_"  overflow="visible"/>
	</clipPath>
	<g clip-path="url(#SVGID_48_)">
		<defs>
			<circle id="SVGID_49_" cx="218.4" cy="383.4" r="24.8"/>
		</defs>
		<clipPath id="SVGID_50_">
			<use xlink:href="#SVGID_49_"  overflow="visible"/>
		</clipPath>
		<rect x="186.4" y="351.5" clip-path="url(#SVGID_50_)" fill="#FFFFFF" width="63.9" height="63.9"/>
	</g>
</g>
<g>
	<defs>
		<rect id="SVGID_51_" x="-474.7" y="-284.3" width="1648.1" height="1002.2"/>
	</defs>
	<clipPath id="SVGID_52_">
		<use xlink:href="#SVGID_51_"  overflow="visible"/>
	</clipPath>
	
		<polyline clip-path="url(#SVGID_52_)" fill="none" stroke="#B7B7B8" stroke-width="3" stroke-linecap="round" stroke-miterlimit="10" points="
		208.4,370 218.5,385.8 231.9,384.9 	"/>
</g>
<g>
	<defs>
		<rect id="SVGID_53_" x="-474.7" y="-284.3" width="1648.1" height="1002.2"/>
	</defs>
	<clipPath id="SVGID_54_">
		<use xlink:href="#SVGID_53_"  overflow="visible"/>
	</clipPath>
	<g clip-path="url(#SVGID_54_)">
		<defs>
			<circle id="SVGID_55_" cx="138.9" cy="384.8" r="24.8"/>
		</defs>
		<clipPath id="SVGID_56_">
			<use xlink:href="#SVGID_55_"  overflow="visible"/>
		</clipPath>
		<rect x="106.9" y="352.9" clip-path="url(#SVGID_56_)" fill="#FFFFFF" width="63.9" height="63.9"/>
	</g>
</g>
<g>
	<defs>
		<rect id="SVGID_57_" x="-474.7" y="-284.3" width="1648.1" height="1002.2"/>
	</defs>
	<clipPath id="SVGID_58_">
		<use xlink:href="#SVGID_57_"  overflow="visible"/>
	</clipPath>
	
		<polyline clip-path="url(#SVGID_58_)" fill="none" stroke="#B7B7B8" stroke-width="3" stroke-linecap="round" stroke-miterlimit="10" points="
		128.9,399.6 139,383.9 152.4,384.7 	"/>
</g>
<g>
	<defs>
		<rect id="SVGID_59_" x="-474.7" y="-284.3" width="1648.1" height="1002.2"/>
	</defs>
	<clipPath id="SVGID_60_">
		<use xlink:href="#SVGID_59_"  overflow="visible"/>
	</clipPath>
	<g clip-path="url(#SVGID_60_)">
		<defs>
			<circle id="SVGID_61_" cx="299.3" cy="384.8" r="24.8"/>
		</defs>
		<clipPath id="SVGID_62_">
			<use xlink:href="#SVGID_61_"  overflow="visible"/>
		</clipPath>
		<rect x="267.3" y="352.9" clip-path="url(#SVGID_62_)" fill="#FFFFFF" width="63.9" height="63.9"/>
	</g>
</g>
<g>
	<defs>
		<rect id="SVGID_63_" x="-474.7" y="-284.3" width="1648.1" height="1002.2"/>
	</defs>
	<clipPath id="SVGID_64_">
		<use xlink:href="#SVGID_63_"  overflow="visible"/>
	</clipPath>
	
		<polyline clip-path="url(#SVGID_64_)" fill="none" stroke="#B7B7B8" stroke-width="3" stroke-linecap="round" stroke-miterlimit="10" points="
		287.1,397.1 302.1,385.8 300.3,372.6 	"/>
</g>
<g>
	<defs>
		<rect id="SVGID_65_" x="-474.7" y="-284.3" width="1648.1" height="1002.2"/>
	</defs>
	<clipPath id="SVGID_66_">
		<use xlink:href="#SVGID_65_"  overflow="visible"/>
	</clipPath>
	<g clip-path="url(#SVGID_66_)">
		<defs>
			<path id="SVGID_67_" d="M69.4,359l12.7,5.6v35.7c0,0-6-1-8.9-1.8c-3-0.8-8.9-3.2-8.9-3.2L69.4,359z"/>
		</defs>
		<clipPath id="SVGID_68_">
			<use xlink:href="#SVGID_67_"  overflow="visible"/>
		</clipPath>
		<rect x="57.2" y="351.9" clip-path="url(#SVGID_68_)" fill="#DCDBDB" width="32" height="55.5"/>
	</g>
</g>
<g>
	<defs>
		<rect id="SVGID_69_" x="-474.7" y="-284.3" width="1648.1" height="1002.2"/>
	</defs>
	<clipPath id="SVGID_70_">
		<use xlink:href="#SVGID_69_"  overflow="visible"/>
	</clipPath>
	<g clip-path="url(#SVGID_70_)">
		<defs>
			<path id="SVGID_71_" d="M87,215.9c0,0,3.9-0.7,9.6-1c5.7-0.3,11.5,0,11.5,0v35c0,0-4.1-1-7.7-1c-3.6,0-7.7,0.4-7.7,0.4L87,215.9z
				"/>
		</defs>
		<clipPath id="SVGID_72_">
			<use xlink:href="#SVGID_71_"  overflow="visible"/>
		</clipPath>
		<rect x="79.9" y="207.7" clip-path="url(#SVGID_72_)" fill="#DCDBDB" width="35.3" height="49.3"/>
	</g>
</g>
<g>
	<defs>
		<rect id="SVGID_73_" x="-474.7" y="-284.3" width="1648.1" height="1002.2"/>
	</defs>
	<clipPath id="SVGID_74_">
		<use xlink:href="#SVGID_73_"  overflow="visible"/>
	</clipPath>
	<g clip-path="url(#SVGID_74_)">
		<defs>
			<path id="SVGID_75_" d="M46.3,334.9l5.2,8.3l-18.9,30.7c0,0-5.9-5.7-10-11.5c-4.1-5.8-7.3-12.7-7.3-12.7L46.3,334.9z"/>
		</defs>
		<clipPath id="SVGID_76_">
			<use xlink:href="#SVGID_75_"  overflow="visible"/>
		</clipPath>
		<rect x="8.1" y="327.8" clip-path="url(#SVGID_76_)" fill="#DCDBDB" width="50.4" height="53.2"/>
	</g>
</g>
<g>
	<defs>
		<rect id="SVGID_77_" x="-474.7" y="-284.3" width="1648.1" height="1002.2"/>
	</defs>
	<clipPath id="SVGID_78_">
		<use xlink:href="#SVGID_77_"  overflow="visible"/>
	</clipPath>
	<g clip-path="url(#SVGID_78_)">
		<defs>
			<path id="SVGID_79_" d="M63.4,354.9l-6.2,37c0,0-8-4.1-12.2-6.9c-4.2-2.8-9-7.7-9-7.7l19-30.1L63.4,354.9z"/>
		</defs>
		<clipPath id="SVGID_80_">
			<use xlink:href="#SVGID_79_"  overflow="visible"/>
		</clipPath>
		<rect x="28.8" y="340.1" clip-path="url(#SVGID_80_)" fill="#DCDBDB" width="41.6" height="58.8"/>
	</g>
</g>
<g>
	<defs>
		<rect id="SVGID_81_" x="-474.7" y="-284.3" width="1648.1" height="1002.2"/>
	</defs>
	<clipPath id="SVGID_82_">
		<use xlink:href="#SVGID_81_"  overflow="visible"/>
	</clipPath>
	<g clip-path="url(#SVGID_82_)">
		<defs>
			<path id="SVGID_83_" d="M40.6,314.6c0,0,0.8,4.7,1.4,7c0.6,2.5,2,7.4,2,7.4L13,345.8c0,0-3.2-8.6-4.8-15.1
				c-1.6-6.5-2.3-13.2-2.3-13.2L40.6,314.6z"/>
		</defs>
		<clipPath id="SVGID_84_">
			<use xlink:href="#SVGID_83_"  overflow="visible"/>
		</clipPath>
		<rect x="-1.2" y="307.5" clip-path="url(#SVGID_84_)" fill="#DCDBDB" width="52.2" height="45.4"/>
	</g>
</g>
<g>
	<defs>
		<rect id="SVGID_85_" x="-474.7" y="-284.3" width="1648.1" height="1002.2"/>
	</defs>
	<clipPath id="SVGID_86_">
		<use xlink:href="#SVGID_85_"  overflow="visible"/>
	</clipPath>
	<g clip-path="url(#SVGID_86_)">
		<defs>
			<path id="SVGID_87_" d="M42.3,291.6c0,0-1.1,4-1.7,8c-0.5,4.1-0.5,8.2-0.5,8.2H5.5c0,0,0.4-7.9,1.2-15c0.8-7.1,3.9-15.3,3.9-15.3
				L42.3,291.6z"/>
		</defs>
		<clipPath id="SVGID_88_">
			<use xlink:href="#SVGID_87_"  overflow="visible"/>
		</clipPath>
		<rect x="-1.6" y="270.4" clip-path="url(#SVGID_88_)" fill="#DCDBDB" width="51" height="44.5"/>
	</g>
</g>
<g>
	<defs>
		<rect id="SVGID_89_" x="-474.7" y="-284.3" width="1648.1" height="1002.2"/>
	</defs>
	<clipPath id="SVGID_90_">
		<use xlink:href="#SVGID_89_"  overflow="visible"/>
	</clipPath>
	<g clip-path="url(#SVGID_90_)">
		<defs>
			<path id="SVGID_91_" d="M51.6,273.2c0,0-2.9,4.3-4.1,6.5c-1.1,2.1-3,6.4-3,6.4L13.1,271c0,0,3.4-7.6,6.1-11.5
				c2.7-4,5.8-8.4,5.8-8.4L51.6,273.2z"/>
		</defs>
		<clipPath id="SVGID_92_">
			<use xlink:href="#SVGID_91_"  overflow="visible"/>
		</clipPath>
		<rect x="6" y="243.9" clip-path="url(#SVGID_92_)" fill="#DCDBDB" width="52.6" height="49.2"/>
	</g>
</g>
<g>
	<defs>
		<rect id="SVGID_93_" x="-474.7" y="-284.3" width="1648.1" height="1002.2"/>
	</defs>
	<clipPath id="SVGID_94_">
		<use xlink:href="#SVGID_93_"  overflow="visible"/>
	</clipPath>
	<g clip-path="url(#SVGID_94_)">
		<defs>
			<path id="SVGID_95_" d="M87.7,250.5c0,0-4.6,0.8-7.9,1.9c-1.9,0.6-7.8,3.2-7.8,3.2l-18.2-29.6c0,0,5.7-3.1,12-5.8
				c6.3-2.7,13.5-3.8,13.5-3.8L87.7,250.5z"/>
		</defs>
		<clipPath id="SVGID_96_">
			<use xlink:href="#SVGID_95_"  overflow="visible"/>
		</clipPath>
		<rect x="46.7" y="209.5" clip-path="url(#SVGID_96_)" fill="#DCDBDB" width="48" height="53.3"/>
	</g>
</g>
<g>
	<defs>
		<rect id="SVGID_97_" x="-474.7" y="-284.3" width="1648.1" height="1002.2"/>
	</defs>
	<clipPath id="SVGID_98_">
		<use xlink:href="#SVGID_97_"  overflow="visible"/>
	</clipPath>
	<g clip-path="url(#SVGID_98_)">
		<defs>
			<path id="SVGID_99_" d="M67.7,258.2c0,0-3.8,2.5-6.8,5.1c-2.9,2.6-5.5,5.7-5.5,5.7l-25.2-24.4c0,0,5.6-6.2,9.5-9
				c3.9-2.8,9.1-6.4,9.1-6.4L67.7,258.2z"/>
		</defs>
		<clipPath id="SVGID_100_">
			<use xlink:href="#SVGID_99_"  overflow="visible"/>
		</clipPath>
		<rect x="23.2" y="222" clip-path="url(#SVGID_100_)" fill="#DCDBDB" width="51.6" height="54"/>
	</g>
</g>
<g>
	<defs>
		<rect id="SVGID_101_" x="-474.7" y="-284.3" width="1648.1" height="1002.2"/>
	</defs>
	<clipPath id="SVGID_102_">
		<use xlink:href="#SVGID_101_"  overflow="visible"/>
	</clipPath>
	<g clip-path="url(#SVGID_102_)">
		<defs>
			<path id="SVGID_103_" d="M245,74.4l-7.1,0.7l5.7-2.7l3.3-1.5l9.1-4.4c0,0,0.5-0.2,0.7-0.6c0.2-0.4-0.2-0.8-0.2-0.8l-2.4-3.4
				c0,0-0.1-0.1,0-0.2c0-0.1,0.2-0.2,0.2-0.2l14.7-4.9l4.5,6.2l-11,4.2c0,0-0.8,0.3-1,0.6c-0.2,0.3,0,0.6,0,0.6l2.5,3.8
				c0,0,0.2,0.3,0,0.5c-0.2,0.2-0.5,0.2-0.5,0.2L248.8,74L245,74.4z"/>
		</defs>
		<clipPath id="SVGID_104_">
			<use xlink:href="#SVGID_103_"  overflow="visible"/>
		</clipPath>
		<rect x="230.8" y="49.3" clip-path="url(#SVGID_104_)" fill="#F0C519" width="49.9" height="32.9"/>
	</g>
</g>
<g>
	<defs>
		<rect id="SVGID_105_" x="-474.7" y="-284.3" width="1648.1" height="1002.2"/>
	</defs>
	<clipPath id="SVGID_106_">
		<use xlink:href="#SVGID_105_"  overflow="visible"/>
	</clipPath>
	<g clip-path="url(#SVGID_106_)">
		<defs>
			<path id="SVGID_107_" d="M242.2,55.7l-5.7,7.8l2.5-8.2l1.5-4.7l3.8-13.1c0,0,0.3-0.7,0.1-1.2c-0.2-0.5-1-0.6-1-0.6l-5.6-0.6
				c0,0-0.2,0-0.3-0.2c-0.1-0.1,0-0.4,0-0.4l8.4-19.3l10.4,1.1l-5.8,14.8c0,0-0.4,1.1-0.3,1.6c0.1,0.5,0.6,0.6,0.6,0.6l6.1,0.9
				c0,0,0.5,0.1,0.5,0.5c0,0.4-0.2,0.7-0.2,0.7l-11.9,16.3L242.2,55.7z"/>
		</defs>
		<clipPath id="SVGID_108_">
			<use xlink:href="#SVGID_107_"  overflow="visible"/>
		</clipPath>
		<rect x="229.4" y="8.1" clip-path="url(#SVGID_108_)" fill="#F0C519" width="35" height="62.4"/>
	</g>
</g>
<g>
	<defs>
		<rect id="SVGID_109_" x="-474.7" y="-284.3" width="1648.1" height="1002.2"/>
	</defs>
	<clipPath id="SVGID_110_">
		<use xlink:href="#SVGID_109_"  overflow="visible"/>
	</clipPath>
	<g clip-path="url(#SVGID_110_)">
		<defs>
			<path id="SVGID_111_" d="M200.3,70.8l2.5,9.3L198,73l-2.7-4.1l-7.8-11.2c0,0-0.4-0.7-0.9-0.8c-0.5-0.2-1.1,0.4-1.1,0.4l-4,4
				c0,0-0.1,0.1-0.3,0.1c-0.2,0-0.3-0.2-0.3-0.2l-9.7-18.6l7.3-7.4l7.9,13.8c0,0,0.6,1,1,1.3c0.4,0.3,0.8-0.1,0.8-0.1l4.5-4.2
				c0,0,0.4-0.3,0.7-0.1c0.3,0.2,0.4,0.6,0.4,0.6l5.1,19.5L200.3,70.8z"/>
		</defs>
		<clipPath id="SVGID_112_">
			<use xlink:href="#SVGID_111_"  overflow="visible"/>
		</clipPath>
		<rect x="164.1" y="28" clip-path="url(#SVGID_112_)" fill="#F0C519" width="45.8" height="59.2"/>
	</g>
</g>
</svg>
